<mxfile host="app.diagrams.net" modified="2022-04-26T12:23:21.460Z" agent="5.0 (Windows NT 10.0; Win64; x64) AppleWebKit/537.36 (KHTML, like Gecko) Chrome/100.0.4896.60 Safari/537.36" etag="86LlszIy0xTz8Wmf4pne" version="17.4.6" type="github">
  <diagram id="IaSLDdlBXV2pcJO6b0DD" name="Page-1">
    <mxGraphModel dx="1422" dy="737" grid="1" gridSize="10" guides="1" tooltips="1" connect="1" arrows="1" fold="1" page="1" pageScale="1" pageWidth="827" pageHeight="1169" math="0" shadow="0">
      <root>
        <mxCell id="0" />
        <mxCell id="1" parent="0" />
        <mxCell id="OexXgjlPGeiQRXXGkfWz-3" value="" style="edgeStyle=orthogonalEdgeStyle;rounded=0;orthogonalLoop=1;jettySize=auto;html=1;" edge="1" parent="1" source="OexXgjlPGeiQRXXGkfWz-1" target="OexXgjlPGeiQRXXGkfWz-2">
          <mxGeometry relative="1" as="geometry" />
        </mxCell>
        <mxCell id="OexXgjlPGeiQRXXGkfWz-1" value="Inicio" style="ellipse;whiteSpace=wrap;html=1;fillColor=#dae8fc;strokeColor=#6c8ebf;" vertex="1" parent="1">
          <mxGeometry x="40" y="40" width="120" height="80" as="geometry" />
        </mxCell>
        <mxCell id="OexXgjlPGeiQRXXGkfWz-5" value="" style="edgeStyle=orthogonalEdgeStyle;rounded=0;orthogonalLoop=1;jettySize=auto;html=1;" edge="1" parent="1" source="OexXgjlPGeiQRXXGkfWz-2" target="OexXgjlPGeiQRXXGkfWz-4">
          <mxGeometry relative="1" as="geometry" />
        </mxCell>
        <mxCell id="OexXgjlPGeiQRXXGkfWz-2" value="qtdmin,qtdmax,&lt;br&gt;estmedio" style="shape=parallelogram;perimeter=parallelogramPerimeter;whiteSpace=wrap;html=1;fixedSize=1;fillColor=#fff2cc;strokeColor=#d6b656;" vertex="1" parent="1">
          <mxGeometry x="40" y="210" width="120" height="60" as="geometry" />
        </mxCell>
        <mxCell id="OexXgjlPGeiQRXXGkfWz-7" value="" style="edgeStyle=orthogonalEdgeStyle;rounded=0;orthogonalLoop=1;jettySize=auto;html=1;" edge="1" parent="1" source="OexXgjlPGeiQRXXGkfWz-4" target="OexXgjlPGeiQRXXGkfWz-6">
          <mxGeometry relative="1" as="geometry" />
        </mxCell>
        <mxCell id="OexXgjlPGeiQRXXGkfWz-4" value="estmedio &amp;lt;- (qtdmin+qtdmax):2" style="whiteSpace=wrap;html=1;fillColor=#f8cecc;strokeColor=#b85450;" vertex="1" parent="1">
          <mxGeometry x="40" y="350" width="120" height="60" as="geometry" />
        </mxCell>
        <mxCell id="OexXgjlPGeiQRXXGkfWz-9" value="" style="edgeStyle=orthogonalEdgeStyle;rounded=0;orthogonalLoop=1;jettySize=auto;html=1;" edge="1" parent="1" source="OexXgjlPGeiQRXXGkfWz-6" target="OexXgjlPGeiQRXXGkfWz-8">
          <mxGeometry relative="1" as="geometry" />
        </mxCell>
        <mxCell id="OexXgjlPGeiQRXXGkfWz-6" value="estmedio" style="shape=document;whiteSpace=wrap;html=1;boundedLbl=1;fillColor=#e1d5e7;strokeColor=#9673a6;" vertex="1" parent="1">
          <mxGeometry x="40" y="480" width="120" height="80" as="geometry" />
        </mxCell>
        <mxCell id="OexXgjlPGeiQRXXGkfWz-8" value="Saida" style="ellipse;whiteSpace=wrap;html=1;fillColor=#dae8fc;strokeColor=#6c8ebf;" vertex="1" parent="1">
          <mxGeometry x="40" y="650" width="120" height="60" as="geometry" />
        </mxCell>
      </root>
    </mxGraphModel>
  </diagram>
</mxfile>
